# xmcd
#
# Track frame offsets:
#	150
#	32047
#	53437
#	81542
#	108987
#	123195
#	151985
#	162605
#	180720
#
# Disc length: 2819 seconds
#
# Revision: 6
# Processed by: cddbd v1.5.2PL0 Copyright (c) Steve Scherf et al.
# Submitted via: audiograbber 1.83.01
#
DISCID=6d0b0109
DTITLE=Deep Purple - Last concert in Japan
DYEAR=1977
DGENRE=Hard Rock
TTITLE0=Burn
TTITLE1=Love Child
TTITLE2=You Keep On Moving
TTITLE3=Wild Dogs
TTITLE4=Lady Luck
TTITLE5=Smoke On The Water
TTITLE6=Soldier Of Fortune
TTITLE7=Woman From Tokyo
TTITLE8=Highway Star
EXTD=YEAR: 1971
EXTT0=
EXTT1=
EXTT2=
EXTT3=
EXTT4=
EXTT5=
EXTT6=
EXTT7=
EXTT8=
PLAYORDER=
